<svg xmlns="http://www.w3.org/2000/svg" aria-hidden="true" style="position:absolute;width:0;height:0;overflow:hidden">
  <defs>
    <symbol id="circle" viewBox="0 0 32 32">
      <path d="M17.872 17.6H8v-3.2h9.872l-4.128-4.144L16 8l8 8-8 8-2.256-2.256z"/>
      <path d="M0 16c0 8.836 7.163 16 16 16s16-7.164 16-16S24.836 0 16 0 0 7.163 0 16m3.2 0C3.2 8.931 8.931 3.2 16 3.2S28.8 8.931 28.8 16 23.069 28.8 16 28.8 3.2 23.069 3.2 16"/>
    </symbol>
    <symbol id="tick" viewBox="0 0 32 32">
      <path d="M29.767 5.156a1.487 1.487 0 0 0-2.133 0L9.559 23.581l-6.948-7.082c-.589-.601-1.544-.601-2.134 0s-.589 1.574 0 2.175l8.014 8.17c.589.6 1.545.6 2.134 0L29.767 7.331a1.56 1.56 0 0 0 0-2.175"/>
    </symbol>
    <symbol id="icon-Chart" viewBox="0 0 32 32">
      <title>Chart</title>
      <path fill="#00acdd" d="M16.507 3.263 7.416 5.862c-3.313.947-4.687 3.486-3.799 7.021l2.433 9.69c.888 3.534 3.268 5 6.58 4.053l9.091-2.599c3.313-.947 4.678-3.484 3.791-7.018l-2.433-9.69c-.888-3.534-3.259-5.003-6.572-4.056" style="fill:var(--color1, #00ACDD)"/>
      <path fill="#11b5e4" d="m20.987 15.961-1.651-6.672c-.599-2.42-2.098-3.505-4.068-2.95l-6.674 1.88c-2.003.564-2.779 2.29-2.18 4.71l1.651 6.672c.608 2.459 2.072 3.512 4.074 2.948l6.674-1.88c1.971-.555 2.782-2.248 2.173-4.708z" opacity=".5" style="fill:var(--color4, #11b5e4)"/>
      <path fill="#00acdd" d="M24.411 7.834H15c-3.429 0-5.373 2.073-5.373 5.732v10.031c0 3.659 1.943 5.732 5.373 5.732h9.411c3.429 0 5.364-2.073 5.364-5.732V13.566c0-3.659-1.934-5.732-5.364-5.732" style="fill:var(--color5, #00acdd)"/>
      <path fill="#00acdd" d="M24.411 8.278a.444.444 0 0 0 0-.888zm0-.889a.444.444 0 0 0 0 .888zm0 0H15v.889h9.411zm-9.411 0c-1.806 0-3.279.548-4.297 1.634-1.014 1.082-1.52 2.638-1.52 4.542h.889c0-1.754.465-3.065 1.28-3.934.811-.865 2.024-1.353 3.648-1.353zm-5.817 6.177v10.031h.889V13.566zm0 10.031c0 1.905.506 3.46 1.52 4.542 1.018 1.086 2.491 1.634 4.297 1.634v-.889c-1.624 0-2.837-.488-3.648-1.353-.815-.869-1.28-2.18-1.28-3.934zM15 29.774h9.411v-.889H15zm9.411 0c1.806 0 3.277-.548 4.293-1.635 1.012-1.082 1.516-2.638 1.516-4.542h-.889c0 1.755-.463 3.066-1.276 3.935-.808.865-2.019 1.353-3.643 1.353zm5.808-6.177V13.566h-.889v10.031zm0-10.031c0-1.904-.504-3.46-1.516-4.542-1.016-1.087-2.487-1.635-4.293-1.635v.889c1.624 0 2.835.488 3.643 1.353.813.869 1.276 2.18 1.276 3.935zm-10.483-1.337c-.457 0-.833.401-.833.898v10.91c0 .487.376.889.833.889.466 0 .842-.401.842-.889v-10.91c0-.497-.376-.898-.842-.898m-4.701 3.525c-.457 0-.833.401-.833.898v7.385c0 .487.376.889.833.889.466 0 .842-.401.842-.889v-7.385c0-.497-.376-.898-.842-.898m8.498 4.796c0-.497.376-.898.842-.898.457 0 .833.401.833.898v3.487c0 .487-.376.889-.842.889-.457 0-.833-.401-.833-.889z" style="fill:var(--color1, #00ACDD)"/>
      <path fill="#fff" d="M19.081 13.127c0-.411.308-.72.655-.72v-.356c-.567 0-1.011.493-1.011 1.076zm0 10.91v-10.91h-.356v10.91zm.655.711c-.348 0-.655-.311-.655-.711h-.356c0 .574.445 1.066 1.011 1.066v-.356zm.664-.711c0 .399-.306.711-.664.711v.356c.573 0 1.019-.491 1.019-1.066h-.356zm0-10.91v10.91h.356v-10.91zm-.664-.721c.357 0 .664.311.664.72h.356c0-.584-.445-1.076-1.019-1.076v.356zm-5.356 4.246c0-.411.308-.72.655-.72v-.356c-.567 0-1.011.493-1.011 1.076zm0 7.385v-7.385h-.356v7.385zm.655.711c-.348 0-.655-.311-.655-.711h-.356c0 .574.445 1.066 1.011 1.066v-.356zm.664-.711c0 .399-.306.711-.664.711v.356c.573 0 1.019-.491 1.019-1.066h-.356zm0-7.385v7.385h.356v-7.385zm-.664-.72c.357 0 .664.311.664.72h.356c0-.584-.445-1.076-1.019-1.076zm9.34 3.542c-.575 0-1.02.492-1.02 1.076h.356c0-.41.307-.72.664-.72zm1.01 1.076c0-.583-.444-1.076-1.011-1.076v.356c.347 0 .655.309.655.72zm0 3.487V20.55h-.356v3.487zm-1.019 1.067c.573 0 1.02-.491 1.02-1.066h-.356c0 .399-.306.711-.664.711v.356zm-1.011-1.067c0 .574.445 1.066 1.011 1.066v-.356c-.348 0-.655-.311-.655-.711h-.356zm0-3.487v3.487h.356V20.55z" style="fill:var(--color1, #fff)"/>
    </symbol>
    <symbol id="triangle" viewBox="0 0 28 32">
      <path d="M26.088 12.891c2.441 1.354 2.441 4.864 0 6.218L4.933 30.848c-2.37 1.315-5.281-.399-5.281-3.109V4.262c0-2.71 2.911-4.424 5.281-3.109l21.155 11.739z"/>
    </symbol>
    <symbol id="coursor" viewBox="0 0 32 32">
      <path d="M24.689 18.067 7.479.857a1 1 0 0 0-.756-.319c-.134 0-.286.034-.403.084a1.08 1.08 0 0 0-.672.992v25.277c0 .437.269.824.672.992.118.05.269.084.403.084.286 0 .555-.118.756-.319l5.244-5.244 3.21 7.597a1.08 1.08 0 0 0 1.412.571l2.975-1.261a1.08 1.08 0 0 0 .571-1.412l-3.378-8h6.42c.437 0 .824-.269.992-.672a1.04 1.04 0 0 0-.235-1.16z"/>
    </symbol>
    <symbol id="wave" viewBox="0 0 32 32">
      <path d="m16.857 13.587 2.079.968 3.095-.921v-2.159c0-3.667-3.095-6.603-6.794-6.603-3.683 0-6.794 2.921-6.794 6.556v9.841c0 .905-.73 1.619-1.619 1.619s-1.619-.714-1.619-1.619V17.11H-.001v4.222a6.81 6.81 0 0 0 6.81 6.81c3.73 0 6.809-3 6.809-6.714v-9.714c0-.889.73-1.619 1.619-1.619s1.619.73 1.619 1.619v1.873zm8.413 3.524v4.365c0 .889-.73 1.603-1.619 1.603s-1.619-.714-1.619-1.603V17.19l-3.095.921-2.079-.968v4.254c0 3.73 3.064 6.746 6.81 6.746a6.81 6.81 0 0 0 6.81-6.81v-4.222h-5.206z"/>
    </symbol>
    <symbol id="heart" viewBox="0 0 32 32">
      <path d="M16 29.286c.286 0 .571-.107.786-.322L27.911 18.25C28.072 18.089 32 14.5 32 10.214c0-5.232-3.196-8.357-8.536-8.357-3.125 0-6.053 2.464-7.464 3.857-1.411-1.393-4.339-3.857-7.464-3.857C3.197 1.857 0 4.982 0 10.214c0 4.286 3.929 7.875 4.071 8l11.143 10.75c.214.214.5.322.786.322"/>
    </symbol>
    <symbol id="clock" viewBox="0 0 32 32">
      <path d="M26.487 2.689h1.614a.53.53 0 0 0 .538-.538V1.075a.53.53 0 0 0-.538-.538H3.361a.53.53 0 0 0-.538.538v1.076a.53.53 0 0 0 .538.538h1.613c0 6.219 2.975 10.723 6.269 12.908-3.294 2.185-6.269 6.689-6.269 12.908H3.361a.53.53 0 0 0-.538.538v1.076c0 .302.235.538.538.538h24.74a.53.53 0 0 0 .538-.538v-1.076a.53.53 0 0 0-.538-.538h-1.614c0-6.219-2.975-10.723-6.269-12.908 3.294-2.185 6.269-6.689 6.269-12.908m-2.151 0c0 2.454-.555 4.622-1.429 6.454H8.554c-.874-1.832-1.429-4-1.429-6.454zm-.958 20.437H8.084c1.244-3.244 3.479-5.546 5.714-6.454h3.866c2.235.908 4.471 3.21 5.714 6.454"/>
    </symbol>
    <symbol id="icon-plus" viewBox="0 0 32 32">
      <path d="M0 16C0 7.168 7.168 0 16 0s16 7.168 16 16-7.168 16-16 16S0 24.832 0 16m17.6 1.6H24v-3.2h-6.4V8h-3.2v6.4H8v3.2h6.4V24h3.2z"/>
    </symbol>
    <symbol id="icon-minus" viewBox="0 0 32 32">
      <path d="M0 16C0 7.168 7.168 0 16 0s16 7.168 16 16-7.168 16-16 16S0 24.832 0 16m8 1.6h16v-3.2H8z"/>
    </symbol>
    <symbol id="icon-minus_circle" viewBox="0 0 32 32">
      <path d="M0 16C0 7.168 7.168 0 16 0s16 7.168 16 16-7.168 16-16 16S0 24.832 0 16m8 1.6h16v-3.2H8z"/>
    </symbol>
    <symbol id="icon-menu" viewBox="0 0 28 32">
      <path stroke-linecap="round" stroke-linejoin="round" stroke-width="3" d="M3.5 16h21m-21-8h21m-21 16h21"/>
    </symbol>
    <symbol id="icon-Activity" viewBox="0 0 32 32">
      <title>Activity</title>
      <path fill="#f03e3d" d="M17.996 4.024 8.668 6.895C5.269 7.941 3.819 10.576 4.66 14.18l2.305 9.881c.841 3.604 3.243 5.053 6.642 4.007l9.328-2.871c3.399-1.046 4.84-3.678 3.999-7.283l-2.305-9.881c-.841-3.604-3.234-5.056-6.633-4.01z" style="fill:var(--color1, #f03e3d)"/>
      <path fill="#e31313" d="m17.329 8.444-6.162 1.896c-2.245.691-3.218 2.366-2.69 4.632l1.449 6.212c.529 2.266 2.1 3.158 4.345 2.467l6.162-1.896c2.245-.691 3.212-2.364 2.684-4.63l-1.449-6.212c-.529-2.266-2.094-3.16-4.34-2.469z" opacity=".5" style="fill:var(--color2, #e31313)"/>
      <path fill="#f03e3d" stroke="#ffefef" stroke-linecap="round" stroke-linejoin="round" stroke-width=".478" d="M24.15 8.977h-8.816c-1.789 0-3.297.691-4.355 1.902-1.056 1.209-1.649 2.919-1.649 4.939v9.112c0 2.014.593 3.722 1.649 4.929 1.058 1.21 2.566 1.901 4.355 1.901h8.816c1.789 0 3.295-.691 4.35-1.901 1.053-1.207 1.644-2.915 1.644-4.929v-9.112c0-2.02-.591-3.73-1.644-4.939-1.056-1.212-2.561-1.903-4.35-1.903z" style="fill:var(--color3, #f03e3d);stroke:var(--color1, #FFEFEF)"/>
      <path fill="#f03e3d" d="M30.984 7.578c-.825 0-1.494.734-1.494 1.639s.669 1.639 1.494 1.639 1.494-.734 1.494-1.639c0-.435-.157-.851-.438-1.159s-.66-.48-1.056-.48" style="fill:var(--color1, #f03e3d)"/>
      <path fill="linear-gradient(223deg, #fff 0%, rgba(255, 255, 255, 0.2) 100%);" d="m25.057 18.394-2.906 4.113a.706.706 0 0 1-1.073.147l-2.79-2.399-2.512 3.565c-.182.317-.536.459-.862.346s-.541-.452-.524-.826a.85.85 0 0 1 .161-.509l3.004-4.25a.706.706 0 0 1 1.064-.156l2.79 2.409 2.45-3.457c.118-.178.297-.297.495-.328s.401.027.56.161a.9.9 0 0 1 .143 1.165z" style="fill:var(--color1, linear-gradient(223deg, #fff 0%, rgba(255, 255, 255, 0.2) 100%);)"/>
    </symbol>
    <symbol id="star" viewBox="0 0 34 32">
      <path d="M32.404 11.487c-.102-.296-.29-.556-.541-.749s-.553-.308-.869-.333l-9.261-.725L17.725.944a1.6 1.6 0 0 0-.598-.688 1.64 1.64 0 0 0-1.764-.001 1.6 1.6 0 0 0-.599.687l-4.008 8.737-9.261.725c-.311.024-.609.136-.857.323s-.437.439-.543.728a1.58 1.58 0 0 0 .394 1.689l6.844 6.57-2.421 10.321c-.074.312-.05.639.068.938s.324.556.592.739a1.64 1.64 0 0 0 1.826.013l8.845-5.807 8.845 5.807a1.65 1.65 0 0 0 1.857-.04c.268-.193.47-.462.579-.771s.118-.644.028-.958l-2.971-10.238 7.369-6.53c.482-.429.66-1.097.452-1.704z"/>
    </symbol>
    <symbol id="star-stroke" viewBox="0 0 34 32">
      <path d="M8.624 19.716 6.203 30.037c-.075.313-.052.64.065.94s.323.558.591.74a1.635 1.635 0 0 0 1.828.01l8.845-5.807 8.845 5.807a1.65 1.65 0 0 0 1.857-.04c.268-.193.47-.462.579-.771s.118-.644.028-.958L25.87 19.72l7.369-6.53a1.578 1.578 0 0 0-.088-2.451 1.63 1.63 0 0 0-.87-.332l-9.261-.726L19.012.945a1.6 1.6 0 0 0-.598-.688 1.64 1.64 0 0 0-1.764 0 1.6 1.6 0 0 0-.598.688l-4.008 8.736-9.261.725c-.311.024-.609.136-.857.323s-.437.439-.543.728a1.58 1.58 0 0 0 .394 1.689zm4.635-6.92c.29-.023.568-.121.806-.286s.426-.39.545-.651l2.922-6.368 2.922 6.368a1.63 1.63 0 0 0 1.351.937l6.453.504-5.314 4.709a1.59 1.59 0 0 0-.476 1.628l2.036 7.014-6.069-3.985a1.63 1.63 0 0 0-1.802 0l-6.342 4.164 1.706-7.272a1.58 1.58 0 0 0-.448-1.504l-4.935-4.738z"/>
    </symbol>
    <symbol id="icon-instagram" viewBox="0 0 31 32">
      <title>instagram</title>
      <path stroke-linecap="round" stroke-linejoin="round" stroke-width="2.064" d="M21.935 2.602H9.032A6.45 6.45 0 0 0 2.58 9.054v12.903a6.45 6.45 0 0 0 6.452 6.452h12.903a6.45 6.45 0 0 0 6.452-6.452V9.054a6.45 6.45 0 0 0-6.452-6.452"/>
      <path stroke-linecap="round" stroke-linejoin="round" stroke-width="2.064" d="M20.645 14.692a5.161 5.161 0 1 1-10.211 1.514 5.161 5.161 0 0 1 10.211-1.514m1.936-6.284h.013"/>
    </symbol>
    <symbol id="icon-twit" viewBox="0 0 37 32">
      <title>twit</title>
      <path stroke-linecap="round" stroke-linejoin="round" stroke-width="2.462" d="M35.32 2.169a16.8 16.8 0 0 1-4.831 2.354 6.9 6.9 0 0 0-7.659-1.916 6.89 6.89 0 0 0-4.434 6.531v1.538A16.4 16.4 0 0 1 4.549 3.707s-6.154 13.846 7.692 20a17.9 17.9 0 0 1-10.769 3.077c13.846 7.692 30.769 0 30.769-17.692a7 7 0 0 0-.123-1.277 11.9 11.9 0 0 0 3.2-5.646z"/>
    </symbol>
    <symbol id="icon-facebook" viewBox="0 0 18 32">
      <title>facebook</title>
      <path stroke-linecap="round" stroke-linejoin="round" stroke-width="2.286" d="M17.113 1.714h-4.286a7.14 7.14 0 0 0-7.143 7.143v4.286H1.398v5.714h4.286v11.429h5.714V18.857h4.286l1.429-5.714h-5.714V8.857a1.427 1.427 0 0 1 1.428-1.428h4.286z"/>
    </symbol>
  </defs>
</svg>